<svg xmlns="http://www.w3.org/2000/svg" viewBox="0 0 20 20.29"><defs><style>.cls-1{fill:#8089a6;}</style></defs><g id="Слой_2" data-name="Слой 2"><g id="Слой_1-2" data-name="Слой 1"><path class="cls-1" d="M15,4.28a1.4,1.4,0,0,0,1.41-1.4V1.41a1.41,1.41,0,0,0-2.82,0V2.88A1.4,1.4,0,0,0,15,4.28Z"/><path class="cls-1" d="M18.57,18.87H1.43V7.44H18.57ZM20,2.44H17.15v.71a2.15,2.15,0,1,1-4.29,0V2.44H7.14v.71a2.14,2.14,0,1,1-4.28,0V2.44L0,2.4V20.29H20Z"/><path class="cls-1" d="M5,4.28a1.4,1.4,0,0,0,1.41-1.4V1.41a1.41,1.41,0,0,0-2.82,0V2.88A1.4,1.4,0,0,0,5,4.28Z"/><rect class="cls-1" x="7.15" y="8.97" width="2.25" height="1.99"/><rect class="cls-1" x="3.63" y="8.97" width="2.25" height="1.99"/><rect class="cls-1" x="10.79" y="8.97" width="2.25" height="1.99"/><rect class="cls-1" x="14.17" y="8.97" width="2.25" height="1.99"/><rect class="cls-1" x="7.15" y="12.27" width="2.25" height="1.99"/><rect class="cls-1" x="10.79" y="12.27" width="2.25" height="1.99"/><rect class="cls-1" x="14.17" y="12.27" width="2.25" height="1.99"/><rect class="cls-1" x="7.15" y="15.64" width="2.25" height="1.99"/><rect class="cls-1" x="3.57" y="12.27" width="2.25" height="1.99"/><rect class="cls-1" x="3.57" y="15.64" width="2.25" height="1.99"/><rect class="cls-1" x="10.79" y="15.64" width="2.25" height="1.99"/><rect class="cls-1" x="14.17" y="15.64" width="2.25" height="1.99"/></g></g></svg>