<svg xmlns="http://www.w3.org/2000/svg" viewBox="0 0 20 18.42"><defs><style>.cls-1{fill:#bbc3cf;}</style></defs><g id="Слой_2" data-name="Слой 2"><g id="Слой_1-2" data-name="Слой 1"><path class="cls-1" d="M18.49,1.53a5.13,5.13,0,0,0-7.31,0l-10,10.19a4,4,0,0,0,0,5.56,3.81,3.81,0,0,0,4.6.64.59.59,0,0,0,.42-.18l10-10.19a2.64,2.64,0,0,0,0-3.7,2.56,2.56,0,0,0-3.65,0L4.33,12.18a.67.67,0,0,0,0,.93.63.63,0,0,0,.91,0l8.22-8.33a1.27,1.27,0,0,1,1.83,0,1.31,1.31,0,0,1,0,1.85L5.7,16.35a2.56,2.56,0,0,1-3.65,0,2.64,2.64,0,0,1,0-3.7l10-10.19a3.85,3.85,0,0,1,5.48,0,4,4,0,0,1,0,5.56L8.44,17.28a.66.66,0,0,0,0,.92.63.63,0,0,0,.91,0l9.14-9.26A5.31,5.31,0,0,0,18.49,1.53Z"/></g></g></svg>