<svg xmlns="http://www.w3.org/2000/svg" viewBox="0 0 20 15.96"><defs><style>.cls-1{fill:#8089a6;}</style></defs><g id="Слой_2" data-name="Слой 2"><g id="Слой_1-2" data-name="Слой 1"><path class="cls-1" d="M1.92,4.92,4.21,6.54,7.13,8.6,7.61,9l.6.43.58.37a3.29,3.29,0,0,0,.64.3,1.73,1.73,0,0,0,.56.11h0a1.73,1.73,0,0,0,.56-.11,3.29,3.29,0,0,0,.64-.3l.58-.37.6-.43.48-.35,5.22-3.68a5.44,5.44,0,0,0,1.36-1.39A3,3,0,0,0,20,1.81,1.77,1.77,0,0,0,19.47.53,1.72,1.72,0,0,0,18.21,0H1.79A1.6,1.6,0,0,0,.46.59,2.29,2.29,0,0,0,0,2.06,2.64,2.64,0,0,0,.61,3.61,5.6,5.6,0,0,0,1.92,4.92Z"/><path class="cls-1" d="M18.88,6.13Q15.22,8.65,13.33,10c-.43.32-.77.57-1,.75a6.27,6.27,0,0,1-1,.54,3.11,3.11,0,0,1-1.23.28h0a3.11,3.11,0,0,1-1.23-.28,6.27,6.27,0,0,1-1-.54c-.27-.18-.61-.43-1-.75-1-.74-2.85-2-5.54-3.91A5.61,5.61,0,0,1,0,5.15v9a1.76,1.76,0,0,0,.52,1.28A1.73,1.73,0,0,0,1.79,16H18.21a1.73,1.73,0,0,0,1.27-.53A1.76,1.76,0,0,0,20,14.15v-9A5.92,5.92,0,0,1,18.88,6.13Z"/></g></g></svg>