<svg xmlns="http://www.w3.org/2000/svg" viewBox="0 0 8 9"><defs><style>.cls-1{fill:#9ba0ad;}</style></defs><g id="Слой_2" data-name="Слой 2"><g id="Слой_1-2" data-name="Слой 1"><path class="cls-1" d="M2,5.79H2L5.68,1.88V.31A.3.3,0,0,0,5.2.06l-3,2.61A.32.32,0,0,1,2,2.73H.26A.27.27,0,0,0,0,3V5.48c0,.17.09.31.26.31Z"/><path class="cls-1" d="M7.91.55a.27.27,0,0,0-.4,0L.16,8.48a.3.3,0,0,0,0,.43A.25.25,0,0,0,.35,9a.25.25,0,0,0,.2-.09l2.3-2.48,2.36,2a.29.29,0,0,0,.48-.24V3.43L7.94,1A.38.38,0,0,0,7.91.55Z"/></g></g></svg>