<svg xmlns="http://www.w3.org/2000/svg" viewBox="0 0 18 18.11"><defs><style>.cls-1{fill:#8089a6;}</style></defs><g id="Слой_2" data-name="Слой 2"><g id="Слой_1-2" data-name="Слой 1"><path class="cls-1" d="M9,9.6c2.23,0,4-2.15,4-4.8C13,1.12,11.23,0,9,0S5,1.12,5,4.8C5,7.45,6.77,9.6,9,9.6Z"/><path class="cls-1" d="M17.91,16.66l-2-4.66a1.12,1.12,0,0,0-.46-.5L12.26,9.83a.2.2,0,0,0-.22,0A4.93,4.93,0,0,1,6,9.85a.2.2,0,0,0-.22,0L2.58,11.5a1.12,1.12,0,0,0-.46.5l-2,4.66a1,1,0,0,0,.08,1,1,1,0,0,0,.85.47H17a1,1,0,0,0,.85-.47A1,1,0,0,0,17.91,16.66Z"/></g></g></svg>