<svg xmlns="http://www.w3.org/2000/svg" viewBox="0 0 14 14.7"><defs><style>.cls-1{fill:#bbc3cf;fill-rule:evenodd;}</style></defs><g id="Слой_2" data-name="Слой 2"><g id="Слой_1-2" data-name="Слой 1"><path class="cls-1" d="M10.18,5.94A4.36,4.36,0,0,0,5.85,1.55a4.39,4.39,0,0,0,0,8.77A4.36,4.36,0,0,0,10.18,5.94Zm.16,3.81,3.45,3.64a.79.79,0,0,1,0,1.1.76.76,0,0,1-.53.21.75.75,0,0,1-.55-.23L9.21,10.8a5.76,5.76,0,0,1-3.36,1.07A5.9,5.9,0,0,1,0,5.94,5.9,5.9,0,0,1,5.85,0a5.9,5.9,0,0,1,5.86,5.94A6,6,0,0,1,10.34,9.75Z"/></g></g></svg>