<svg xmlns="http://www.w3.org/2000/svg" viewBox="0 0 20 20.28"><defs><style>.cls-1{fill:#0ad69c;}</style></defs><g id="Слой_2" data-name="Слой 2"><g id="Слой_1-2" data-name="Слой 1"><path class="cls-1" d="M19,.16.55,9.73c-.76.4-.73,1,.07,1.28L3,11.94a3,3,0,0,0,2.67-.38l10.22-8c.67-.53.74-.45.16.17L7.94,12.31A1,1,0,0,0,8.33,14l.27.11,2.89,1.14,2.61,1,1.44.59s0,0,0,0,.19-.67.41-1.48l4-14.49C20.17.12,19.73-.23,19,.16Z"/><path class="cls-1" d="M8.13,15.58l-1.68-.81c-.74-.35-1.09.06-.78.93,0,0,1.55,4.42,1.51,4.57s1.49-2.62,1.49-2.62A1.46,1.46,0,0,0,8.13,15.58Z"/></g></g></svg>