<svg xmlns="http://www.w3.org/2000/svg" viewBox="0 0 20 19.73"><defs><style>.cls-1{fill:#8089a6;}</style></defs><g id="Слой_2" data-name="Слой 2"><g id="Слой_1-2" data-name="Слой 1"><path class="cls-1" d="M4,7.67a3.94,3.94,0,0,0,1.18-.19L7.4,9.74,9.87,7.27,7.61,5A3.82,3.82,0,0,0,4,0,4,4,0,0,0,2.31.37a.27.27,0,0,0-.14.2A.25.25,0,0,0,2.24.8L4.62,3.18a.89.89,0,0,1,.27.65.91.91,0,0,1-.27.66,1,1,0,0,1-1.31,0L.93,2.11A.25.25,0,0,0,.7,2a.23.23,0,0,0-.19.14A3.83,3.83,0,0,0,4,7.67Z"/><path class="cls-1" d="M16,12.07a3.93,3.93,0,0,0-1.18.18l-2.5-2.5L9.88,12.23l2.5,2.5a3.86,3.86,0,0,0,.94,3.88A3.78,3.78,0,0,0,16,19.73a4,4,0,0,0,1.66-.37.27.27,0,0,0,.14-.19.24.24,0,0,0-.07-.23l-2.38-2.38a.91.91,0,0,1-.27-.66.88.88,0,0,1,.27-.65.93.93,0,0,1,1.31,0l2.38,2.37a.27.27,0,0,0,.23.08.26.26,0,0,0,.19-.15A3.82,3.82,0,0,0,16,12.07Z"/><path class="cls-1" d="M15,6.43s.42.36.76.19,1.47.88,1.82,1.13h0l-.19.19a.64.64,0,1,0,.9.9l1.5-1.5a.64.64,0,0,0-.9-.9l-.25.25c-.2-.28-.55-.77-.5-.93.18-.71-1.26-2.37-1.26-2.37C13.33-.18,11-.1,9.81.29c-.45.16-.37.26.11.34,3.44.6,3.86,2.63,3.28,3.41-.22.3.1.67.1.67l.13.12L7.62,10.64a1.63,1.63,0,0,1,.22.17l1,1A.89.89,0,0,1,9,12L14.79,6.2Z"/><path class="cls-1" d="M7.45,11.2a.61.61,0,0,0-.81,0L.18,17a.51.51,0,0,0,0,.75l1.76,1.76a.51.51,0,0,0,.75,0L8.45,13a.61.61,0,0,0,0-.81Z"/></g></g></svg>