<svg xmlns="http://www.w3.org/2000/svg" viewBox="0 0 18 18.25"><defs><style>.cls-1{fill:#bbc3cf;fill-rule:evenodd;}</style></defs><g id="Слой_2" data-name="Слой 2"><g id="Слой_1-2" data-name="Слой 1"><path class="cls-1" d="M9,13.54A4.2,4.2,0,0,0,12.9,11a.51.51,0,0,0-.26-.67.5.5,0,0,0-.67.26,3.17,3.17,0,0,1-3,1.9,3.15,3.15,0,0,1-3-1.89.51.51,0,0,0-.47-.32.45.45,0,0,0-.2,0A.51.51,0,0,0,5.1,11,4.16,4.16,0,0,0,9,13.54Zm1.4-6.89a1.06,1.06,0,1,1,1.06,1.07A1.06,1.06,0,0,1,10.41,6.65ZM6.69,5.59a1.07,1.07,0,0,0,0,2.13,1.07,1.07,0,0,0,0-2.13Zm7.69,9a7.53,7.53,0,0,1-10.76,0,7.82,7.82,0,0,1,0-10.93,7.55,7.55,0,0,1,10.77,0A7.81,7.81,0,0,1,14.38,14.58Zm1-11.91a8.93,8.93,0,0,0-12.74,0,9.23,9.23,0,0,0,0,12.91,8.93,8.93,0,0,0,12.74,0A9.23,9.23,0,0,0,15.37,2.67Z"/></g></g></svg>