<svg xmlns="http://www.w3.org/2000/svg" viewBox="0 0 20 19.97"><defs><style>.cls-1{fill:#8089a6;}</style></defs><g id="Слой_2" data-name="Слой 2"><g id="Слой_1-2" data-name="Слой 1"><circle class="cls-1" cx="3.18" cy="1.97" r="1.97"/><path class="cls-1" d="M1,10.86h.19v3.91a1,1,0,0,0,1,1H4.21a1,1,0,0,0,1-1v-.23a2.44,2.44,0,0,1-.29-1.14V8.28A2.43,2.43,0,0,1,6.36,6.05V5.66a1,1,0,0,0-1-1H1a1,1,0,0,0-1,1V9.88A1,1,0,0,0,1,10.86Z"/><circle class="cls-1" cx="16.84" cy="1.97" r="1.97"/><path class="cls-1" d="M13.64,5.64V6a2.44,2.44,0,0,1,1.47,2.23v5.11a2.36,2.36,0,0,1-.29,1.14v.23a1,1,0,0,0,1,1h2.06a1,1,0,0,0,1-1V10.82H19a1,1,0,0,0,1-1V5.64a1,1,0,0,0-1-1h-4.4A1,1,0,0,0,13.64,5.64Z"/><path class="cls-1" d="M6.37,8.28V13.4a1,1,0,0,0,1,1h.38V19a1,1,0,0,0,1,1h2.63a1,1,0,0,0,1-1V14.36h.37a1,1,0,0,0,1-1V8.28a1,1,0,0,0-1-1H7.35A1,1,0,0,0,6.37,8.28Z"/><circle class="cls-1" cx="10.01" cy="4.22" r="2.27" transform="translate(5.24 13.98) rotate(-86.83)"/></g></g></svg>